<svg id="Layer_1" viewBox="0 0 24 24" xmlns="http://www.w3.org/2000/svg" data-name="Layer 1"><path d="m21.5 5c-.73 0-1.38.32-1.84.82-.96-3.33-4.03-5.78-7.66-5.78s-6.7 2.44-7.66 5.78c-.46-.5-1.11-.82-1.84-.82-1.38 0-2.5 1.12-2.5 2.5v10.1c0 2 .78 3.89 2.2 5.3l.95.95c.2.2.51.2.71 0s.2-.51 0-.71l-.95-.95c-1.23-1.23-1.9-2.86-1.9-4.6v-10.09c0-.83.67-1.5 1.5-1.5s1.5.67 1.5 1.5v8c.04.58.19 1.15.61 1.63l2.62 2.72c.19.2.51.21.71.01.2-.19.21-.51.01-.71l-2.59-2.7c-.48-.57-.46-1.41.03-1.96.52-.61 1.52-.66 2.11-.12l2.73 2.52c1.13 1.04 1.78 2.51 1.78 4.05v2.56c0 .28.22.5.5.5s.5-.22.5-.5v-2.56c0-.81-.16-1.61-.45-2.36.3-.64.71-1.21 1.23-1.69l2.73-2.51c.6-.52 1.59-.51 2.11.12.48.54.52 1.38.05 1.93l-2.62 2.72c-.19.2-.19.52.01.71s.52.18.71-.01l2.64-2.75c.4-.46.55-1.03.58-1.6v-8c0-.83.67-1.5 1.5-1.5s1.5.67 1.5 1.5v10.1c0 1.74-.68 3.37-1.9 4.6l-.95.95c-.2.2-.2.51 0 .71s.51.2.71 0l.95-.95c1.42-1.42 2.2-3.3 2.2-5.3v-10.11c0-1.38-1.12-2.5-2.5-2.5zm-2.54 3.35-1.47-.77c-.15-.08-.25-.21-.29-.38l-.24-.96c-.06-.25.05-.51.27-.65l1.04-.62c.45.92.71 1.95.71 3.05 0 .11-.01.22-.02.33zm-7.61-7.28-.72 1.59c-.15.32-.12.69.06.99l.3.51c-.44-.26-.99-.19-1.34.18l-.73.77c-.23.24-.34.6-.27.93-.49.03-.98-.14-1.31-.51l-1.19-1.31c1.14-1.74 3.02-2.94 5.2-3.14zm-6.35 12.43v-1.66c.24.44.53.86.85 1.25-.31.08-.59.22-.85.41zm2.23-.39c-1.41-1.31-2.21-3.17-2.21-5.09 0-1.03.23-2 .63-2.88l.96 1.06c.48.53 1.17.83 1.88.83h.88s.58.42.6.43l.04.56c0 .43.15.86.41 1.21l.59.77v1.92c0 .6.49 1.08 1.08 1.08.41 0 .78-.23.97-.59l1.43-2.83c.38-.74.1-1.64-.63-2.04l-1.37-.75c-.29-.16-.62-.25-.96-.25h-1.08l-.78-.75.81-.79.74.37c.3.15.67.09.91-.15.26-.26.3-.65.12-.96l-.68-1.2.91-2.01c2.21.14 4.14 1.31 5.32 3.04l-1.06.63c-.61.36-.9 1.06-.73 1.75l.24.96c.11.44.4.81.8 1.02l1.81.95c-.29 1.41-1.01 2.7-2.07 3.7-.34.11-.65.28-.93.53l-.63.58c-1.97 1.02-4.45 1.02-6.41 0l-.63-.58c-.27-.25-.59-.42-.93-.52zm4.67-3.58-.69-.9c-.13-.17-.2-.39-.2-.6v-.49h.52c.17 0 .33.04.48.12l1.37.75c.26.14.35.46.22.72l-1.51 2.87s-.08-.04-.08-.08v-2.09c0-.11-.04-.22-.1-.3zm.1 7.96c-.3-.49-.67-.94-1.1-1.34l-.33-.3c.47.09.95.14 1.42.14s.95-.06 1.42-.14l-.33.3c-.43.4-.79.85-1.1 1.34zm6.15-4.4c.32-.39.61-.81.85-1.25v1.66c-.25-.19-.54-.33-.85-.41z"/></svg>