<svg width="104" height="130" viewBox="0 0 104 130" fill="none" xmlns="http://www.w3.org/2000/svg">
<path d="M72.5314 28.8328H70.7446V30.8264H72.5314V28.8328Z" fill="#BB9DC8"/>
<path d="M48.5993 124.062H46.8052V126.055H48.5993V124.062Z" fill="#BB9DC8"/>
<path d="M72.4589 27.6194H70.6721V28.2006H72.4589V27.6194Z" fill="#BB9DC8"/>
<path d="M54.1704 118.934H52.3762V120.92H54.1704V118.934Z" fill="#BB9DC8"/>
<path d="M51.4141 121.502H49.6201V123.496H51.4141V121.502Z" fill="#BB9DC8"/>
<path d="M45.8137 126.621H44.0195V128.607H45.8137V126.621Z" fill="#BB9DC8"/>
<path d="M70.6961 77.9485H68.9021V79.9343H70.6961V77.9485Z" fill="#BB9DC8"/>
<path d="M73.0464 44.5652H71.2524V46.5588H73.0464V44.5652Z" fill="#BB9DC8"/>
<path d="M72.6404 31.4729H70.8462V33.4585H72.6404V31.4729Z" fill="#BB9DC8"/>
<path d="M73.0826 47.1528H71.2959V49.1465H73.0826V47.1528Z" fill="#BB9DC8"/>
<path d="M72.9885 41.9653H71.1943V43.9509H72.9885V41.9653Z" fill="#BB9DC8"/>
<path d="M72.7345 34.1008H70.9478V36.0947H72.7345V34.1008Z" fill="#BB9DC8"/>
<path d="M56.7823 116.375H54.9883V118.36H56.7823V116.375Z" fill="#BB9DC8"/>
<path d="M72.9158 39.3572H71.1218V41.3428H72.9158V39.3572Z" fill="#BB9DC8"/>
<path d="M68.3164 98.4414H66.5225V100.427H68.3164V98.4414Z" fill="#BB9DC8"/>
<path d="M69.9851 90.7588H68.1912V92.7444H69.9851V90.7588Z" fill="#BB9DC8"/>
<path d="M70.2752 88.1909H68.4812V90.1848H70.2752V88.1909Z" fill="#BB9DC8"/>
<path d="M69.5933 93.3145H67.7993V95.3081H69.5933V93.3145Z" fill="#BB9DC8"/>
<path d="M69.0422 95.8818H67.248V97.8674H69.0422V95.8818Z" fill="#BB9DC8"/>
<path d="M70.6526 80.5083H68.8584V82.4939H70.6526V80.5083Z" fill="#BB9DC8"/>
<path d="M70.5945 83.064H68.8005V85.0576H70.5945V83.064Z" fill="#BB9DC8"/>
<path d="M70.4639 85.6313H68.6699V87.625H70.4639V85.6313Z" fill="#BB9DC8"/>
<path d="M66.2566 103.569H64.4624V105.554H66.2566V103.569Z" fill="#BB9DC8"/>
<path d="M63.2532 108.692H61.4592V110.677H63.2532V108.692Z" fill="#BB9DC8"/>
<path d="M73.0972 49.7366H71.3103V51.7304H73.0972V49.7366Z" fill="#BB9DC8"/>
<path d="M61.3521 111.251H59.5581V113.237H61.3521V111.251Z" fill="#BB9DC8"/>
<path d="M64.8782 106.124H63.0842V108.118H64.8782V106.124Z" fill="#BB9DC8"/>
<path d="M67.4026 101.001H65.6084V102.995H67.4026V101.001Z" fill="#BB9DC8"/>
<path d="M59.1909 113.811H57.3967V115.805H59.1909V113.811Z" fill="#BB9DC8"/>
<path d="M72.836 36.7332H71.0493V38.7189H72.836V36.7332Z" fill="#BB9DC8"/>
<path d="M70.4276 101.001H68.6406V102.995H70.4276V101.001Z" fill="#BB9DC8"/>
<path d="M69.4701 103.569H67.6833V105.554H69.4701V103.569Z" fill="#BB9DC8"/>
<path d="M73.1336 52.3125H71.3396V54.3061H73.1336V52.3125Z" fill="#BB9DC8"/>
<path d="M66.9603 108.692H65.1736V110.677H66.9603V108.692Z" fill="#BB9DC8"/>
<path d="M71.182 98.4414H69.3953V100.427H71.182V98.4414Z" fill="#BB9DC8"/>
<path d="M72.2413 93.3145H70.4546V95.3081H72.2413V93.3145Z" fill="#BB9DC8"/>
<path d="M71.7914 95.8818H70.0046V97.8674H71.7914V95.8818Z" fill="#BB9DC8"/>
<path d="M63.6013 113.811H61.8071V115.805H63.6013V113.811Z" fill="#BB9DC8"/>
<path d="M59.5026 118.934H57.7158V120.92H59.5026V118.934Z" fill="#BB9DC8"/>
<path d="M57.2754 121.502H55.4814V123.496H57.2754V121.502Z" fill="#BB9DC8"/>
<path d="M65.3788 111.251H63.592V113.237H65.3788V111.251Z" fill="#BB9DC8"/>
<path d="M52.8141 126.621H51.0273V128.607H52.8141V126.621Z" fill="#BB9DC8"/>
<path d="M72.5751 90.7588H70.7883V92.7444H72.5751V90.7588Z" fill="#BB9DC8"/>
<path d="M61.6207 116.375H59.834V118.36H61.6207V116.375Z" fill="#BB9DC8"/>
<path d="M68.324 106.124H66.5371V108.118H68.324V106.124Z" fill="#BB9DC8"/>
<path d="M73.1482 62.571H71.3542V64.5647H73.1482V62.571Z" fill="#BB9DC8"/>
<path d="M73.1482 70.2537H71.3542V72.2392H73.1482V70.2537Z" fill="#BB9DC8"/>
<path d="M73.1482 67.698H71.3542V69.6918H73.1482V67.698Z" fill="#BB9DC8"/>
<path d="M73.1482 65.1384H71.3542V67.1321H73.1482V65.1384Z" fill="#BB9DC8"/>
<path d="M73.141 54.8879H71.3542V56.8816H73.141V54.8879Z" fill="#BB9DC8"/>
<path d="M73.141 57.4475H71.3542V59.4333H73.141V57.4475Z" fill="#BB9DC8"/>
<path d="M73.1482 60.0112H71.3542V61.997H73.1482V60.0112Z" fill="#BB9DC8"/>
<path d="M72.8073 88.1909H71.0205V90.1848H72.8073V88.1909Z" fill="#BB9DC8"/>
<path d="M73.0611 83.064H71.2671V85.0576H73.0611V83.064Z" fill="#BB9DC8"/>
<path d="M73.1045 80.5083H71.3103V82.4939H73.1045V80.5083Z" fill="#BB9DC8"/>
<path d="M72.9595 85.6313H71.1655V87.625H72.9595V85.6313Z" fill="#BB9DC8"/>
<path d="M73.1263 77.9485H71.3396V79.9343H73.1263V77.9485Z" fill="#BB9DC8"/>
<path d="M73.141 75.3809H71.3542V77.3664H73.141V75.3809Z" fill="#BB9DC8"/>
<path d="M73.1482 72.8215H71.3542V74.8071H73.1482V72.8215Z" fill="#BB9DC8"/>
<path d="M70.7105 75.3809H68.9165V77.3664H70.7105V75.3809Z" fill="#BB9DC8"/>
<path d="M68.1135 83.064H66.3193V85.0576H68.1135V83.064Z" fill="#BB9DC8"/>
<path d="M68.2441 77.9485H66.45V79.9343H68.2441V77.9485Z" fill="#BB9DC8"/>
<path d="M68.2007 80.5083H66.4067V82.4939H68.2007V80.5083Z" fill="#BB9DC8"/>
<path d="M68.2732 75.3809H66.4792V77.3664H68.2732V75.3809Z" fill="#BB9DC8"/>
<path d="M68.2732 67.698H66.4792V69.6918H68.2732V67.698Z" fill="#BB9DC8"/>
<path d="M68.2732 72.8215H66.4792V74.8071H68.2732V72.8215Z" fill="#BB9DC8"/>
<path d="M68.2732 70.2537H66.4792V72.2392H68.2732V70.2537Z" fill="#BB9DC8"/>
<path d="M66.2566 95.8818H64.4624V97.8674H66.2566V95.8818Z" fill="#BB9DC8"/>
<path d="M68.2732 65.1384H66.4792V67.1321H68.2732V65.1384Z" fill="#BB9DC8"/>
<path d="M66.9092 93.3145H65.1152V95.3081H66.9092V93.3145Z" fill="#BB9DC8"/>
<path d="M67.9683 85.6313H66.1743V87.625H67.9683V85.6313Z" fill="#BB9DC8"/>
<path d="M65.4148 98.4414H63.6208V100.427H65.4148V98.4414Z" fill="#BB9DC8"/>
<path d="M67.7361 88.1909H65.9421V90.1848H67.7361V88.1909Z" fill="#BB9DC8"/>
<path d="M64.3411 101.001H62.5471V102.995H64.3411V101.001Z" fill="#BB9DC8"/>
<path d="M67.388 90.7588H65.594V92.7444H67.388V90.7588Z" fill="#BB9DC8"/>
<path d="M67.3156 36.2737H65.5215V38.2593H67.3156V36.2737Z" fill="#BB9DC8"/>
<path d="M67.8813 44.3635H66.0872V46.3572H67.8813V44.3635Z" fill="#BB9DC8"/>
<path d="M67.7217 41.6831H65.9277V43.6687H67.7217V41.6831Z" fill="#BB9DC8"/>
<path d="M55.0049 124.062H53.218V126.055H55.0049V124.062Z" fill="#BB9DC8"/>
<path d="M66.5608 28.0549H64.7668V30.0486H66.5608V28.0549Z" fill="#BB9DC8"/>
<path d="M67.0835 33.5447H65.2893V35.5383H67.0835V33.5447Z" fill="#BB9DC8"/>
<path d="M66.8222 30.7998H65.0281V32.7856H66.8222V30.7998Z" fill="#BB9DC8"/>
<path d="M67.5188 38.9863H65.7246V40.9721H67.5188V38.9863Z" fill="#BB9DC8"/>
<path d="M68.2297 54.856H66.4355V56.8496H68.2297V54.856Z" fill="#BB9DC8"/>
<path d="M68.2441 57.4275H66.45V59.4131H68.2441V57.4275Z" fill="#BB9DC8"/>
<path d="M68.0122 47.0078H66.218V49.0016H68.0122V47.0078Z" fill="#BB9DC8"/>
<path d="M68.2732 60.0073H66.4792V61.9929H68.2732V60.0073Z" fill="#BB9DC8"/>
<path d="M68.0993 49.6399H66.3052V51.6337H68.0993V49.6399Z" fill="#BB9DC8"/>
<path d="M68.1717 52.2559H66.3777V54.2497H68.1717V52.2559Z" fill="#BB9DC8"/>
<path d="M68.2732 62.571H66.4792V64.5566H68.2732V62.571Z" fill="#BB9DC8"/>
<path d="M70.6672 52.2964H68.873V54.29H70.6672V52.2964Z" fill="#BB9DC8"/>
<path d="M70.6817 54.8721H68.8877V56.8657H70.6817V54.8721Z" fill="#BB9DC8"/>
<path d="M70.6236 49.7046H68.8296V51.6982H70.6236V49.7046Z" fill="#BB9DC8"/>
<path d="M70.5656 47.1045H68.7715V49.0983H70.5656V47.1045Z" fill="#BB9DC8"/>
<path d="M70.7105 57.4475H68.9165V59.4333H70.7105V57.4475Z" fill="#BB9DC8"/>
<path d="M70.3914 41.8604H68.5974V43.8459H70.3914V41.8604Z" fill="#BB9DC8"/>
<path d="M70.493 44.4924H68.699V46.4861H70.493V44.4924Z" fill="#BB9DC8"/>
<path d="M70.2752 39.2122H68.4812V41.1977H70.2752V39.2122Z" fill="#BB9DC8"/>
<path d="M70.7105 60.0112H68.9165V61.997H70.7105V60.0112Z" fill="#BB9DC8"/>
<path d="M70.7105 72.8215H68.9165V74.8071H70.7105V72.8215Z" fill="#BB9DC8"/>
<path d="M70.7105 67.698H68.9165V69.6918H70.7105V67.698Z" fill="#BB9DC8"/>
<path d="M70.7105 70.2537H68.9165V72.2392H70.7105V70.2537Z" fill="#BB9DC8"/>
<path d="M70.7105 62.571H68.9165V64.5647H70.7105V62.571Z" fill="#BB9DC8"/>
<path d="M70.7105 65.1384H68.9165V67.1321H70.7105V65.1384Z" fill="#BB9DC8"/>
<path d="M41.7366 124.062H39.9426V126.055H41.7366V124.062Z" fill="#BB9DC8"/>
<path d="M45.2334 121.502H43.4392V123.496H45.2334V121.502Z" fill="#BB9DC8"/>
<path d="M54.6496 113.811H52.8555V115.805H54.6496V113.811Z" fill="#BB9DC8"/>
<path d="M48.614 118.934H46.8198V120.92H48.614V118.934Z" fill="#BB9DC8"/>
<path d="M51.7766 116.375H49.9827V118.36H51.7766V116.375Z" fill="#BB9DC8"/>
<path d="M61.396 106.124H59.6021V108.118H61.396V106.124Z" fill="#BB9DC8"/>
<path d="M59.4663 108.692H57.6724V110.677H59.4663V108.692Z" fill="#BB9DC8"/>
<path d="M57.2176 111.251H55.4236V113.237H57.2176V111.251Z" fill="#BB9DC8"/>
<path d="M69.5354 27.281H67.7415V27.8622H69.5354V27.281Z" fill="#BB9DC8"/>
<path d="M69.6514 28.5183H67.8574V30.5039H69.6514V28.5183Z" fill="#BB9DC8"/>
<path d="M69.8255 31.2029H68.0315V33.1887H69.8255V31.2029Z" fill="#BB9DC8"/>
<path d="M69.9851 33.8755H68.1912V35.8691H69.9851V33.8755Z" fill="#BB9DC8"/>
<path d="M70.1448 36.5479H68.3508V38.5334H70.1448V36.5479Z" fill="#BB9DC8"/>
<path d="M63.0063 103.569H61.2122V105.554H63.0063V103.569Z" fill="#BB9DC8"/>
<path d="M38.2254 126.621H36.4314V128.607H38.2254V126.621Z" fill="#BB9DC8"/>
<path d="M80.4386 52.3286H78.6519V54.3222H80.4386V52.3286Z" fill="#BB9DC8"/>
<path d="M80.4244 36.9429H78.6377V38.9284H80.4244V36.9429Z" fill="#BB9DC8"/>
<path d="M80.3954 31.8035H78.6086V33.789H80.3954V31.8035Z" fill="#BB9DC8"/>
<path d="M80.4095 34.3669H78.6226V36.3608H80.4095V34.3669Z" fill="#BB9DC8"/>
<path d="M80.3877 29.2278H78.5938V31.2134H80.3877V29.2278Z" fill="#BB9DC8"/>
<path d="M69.26 118.934H67.4658V120.92H69.26V118.934Z" fill="#BB9DC8"/>
<path d="M67.8597 121.502H66.0728V123.496H67.8597V121.502Z" fill="#BB9DC8"/>
<path d="M65.1322 126.621H63.3455V128.607H65.1322V126.621Z" fill="#BB9DC8"/>
<path d="M66.4669 124.062H64.6799V126.055H66.4669V124.062Z" fill="#BB9DC8"/>
<path d="M80.4386 49.7607H78.6519V51.7546H80.4386V49.7607Z" fill="#BB9DC8"/>
<path d="M80.4244 39.5105H78.6377V41.4963H80.4244V39.5105Z" fill="#BB9DC8"/>
<path d="M66.3869 26.7729H64.5928V27.3541H66.3869V26.7729Z" fill="#BB9DC8"/>
<path d="M80.4386 47.2012H78.6519V49.1948H80.4386V47.2012Z" fill="#BB9DC8"/>
<path d="M80.4386 44.6375H78.6519V46.6311H80.4386V44.6375Z" fill="#BB9DC8"/>
<path d="M80.4386 54.8879H78.6519V56.8816H80.4386V54.8879Z" fill="#BB9DC8"/>
<path d="M80.4244 42.0781H78.6377V44.0637H80.4244V42.0781Z" fill="#BB9DC8"/>
<path d="M77.6964 90.7588H75.9097V92.7444H77.6964V90.7588Z" fill="#BB9DC8"/>
<path d="M77.5081 93.3145H75.7212V95.3081H77.5081V93.3145Z" fill="#BB9DC8"/>
<path d="M77.2179 95.8818H75.4312V97.8674H77.2179V95.8818Z" fill="#BB9DC8"/>
<path d="M77.8414 88.1909H76.0547V90.1848H77.8414V88.1909Z" fill="#BB9DC8"/>
<path d="M76.826 98.4414H75.0391V100.427H76.826V98.4414Z" fill="#BB9DC8"/>
<path d="M77.9722 83.064H76.1853V85.0576H77.9722V83.064Z" fill="#BB9DC8"/>
<path d="M77.9288 85.6313H76.1421V87.625H77.9288V85.6313Z" fill="#BB9DC8"/>
<path d="M74.0692 108.692H72.2825V110.677H74.0692V108.692Z" fill="#BB9DC8"/>
<path d="M76.3328 101.001H74.5459V102.995H76.3328V101.001Z" fill="#BB9DC8"/>
<path d="M73.0392 111.251H71.2524V113.237H73.0392V111.251Z" fill="#BB9DC8"/>
<path d="M71.8785 113.811H70.0918V115.805H71.8785V113.811Z" fill="#BB9DC8"/>
<path d="M70.6089 116.375H68.8149V118.36H70.6089V116.375Z" fill="#BB9DC8"/>
<path d="M74.9544 106.124H73.1675V108.118H74.9544V106.124Z" fill="#BB9DC8"/>
<path d="M75.7089 103.569H73.9221V105.554H75.7089V103.569Z" fill="#BB9DC8"/>
<path d="M78.1173 106.124H76.3306V108.118H78.1173V106.124Z" fill="#BB9DC8"/>
<path d="M77.421 108.692H75.6343V110.677H77.421V108.692Z" fill="#BB9DC8"/>
<path d="M77.9869 80.5083H76.2V82.4939H77.9869V80.5083Z" fill="#BB9DC8"/>
<path d="M75.7017 113.811H73.9077V115.805H75.7017V113.811Z" fill="#BB9DC8"/>
<path d="M76.6085 111.251H74.8218V113.237H76.6085V111.251Z" fill="#BB9DC8"/>
<path d="M78.712 103.569H76.9253V105.554H78.712V103.569Z" fill="#BB9DC8"/>
<path d="M79.5826 98.4414H77.7959V100.427H79.5826V98.4414Z" fill="#BB9DC8"/>
<path d="M80.4386 57.4475H78.6519V59.4413H80.4386V57.4475Z" fill="#BB9DC8"/>
<path d="M79.8729 95.8818H78.0862V97.8674H79.8729V95.8818Z" fill="#BB9DC8"/>
<path d="M70.4713 126.621H68.6846V128.607H70.4713V126.621Z" fill="#BB9DC8"/>
<path d="M71.4869 124.062H69.7V126.055H71.4869V124.062Z" fill="#BB9DC8"/>
<path d="M74.7076 116.375H72.9209V118.36H74.7076V116.375Z" fill="#BB9DC8"/>
<path d="M104 28.1152H103.012V28.6964H104V28.1152Z" fill="#BB9DC8"/>
<path d="M73.6631 118.934H71.8762V120.92H73.6631V118.934Z" fill="#BB9DC8"/>
<path d="M72.5604 121.502H70.7737V123.496H72.5604V121.502Z" fill="#BB9DC8"/>
<path d="M79.1913 101.001H77.4045V102.995H79.1913V101.001Z" fill="#BB9DC8"/>
<path d="M80.4386 75.3809H78.6519V77.3664H80.4386V75.3809Z" fill="#BB9DC8"/>
<path d="M80.4386 70.2537H78.6519V72.2392H80.4386V70.2537Z" fill="#BB9DC8"/>
<path d="M80.4386 72.8215H78.6519V74.8071H80.4386V72.8215Z" fill="#BB9DC8"/>
<path d="M80.4386 67.698H78.6519V69.6918H80.4386V67.698Z" fill="#BB9DC8"/>
<path d="M80.4386 65.1384H78.6519V67.1321H80.4386V65.1384Z" fill="#BB9DC8"/>
<path d="M80.4386 60.0112H78.6519V61.997H80.4386V60.0112Z" fill="#BB9DC8"/>
<path d="M80.4386 62.571H78.6519V64.5647H80.4386V62.571Z" fill="#BB9DC8"/>
<path d="M80.2355 90.7588H78.4487V92.7444H80.2355V90.7588Z" fill="#BB9DC8"/>
<path d="M80.337 88.1909H78.5503V90.1848H80.337V88.1909Z" fill="#BB9DC8"/>
<path d="M80.0905 93.3145H78.3037V95.3081H80.0905V93.3145Z" fill="#BB9DC8"/>
<path d="M80.4386 77.9485H78.6519V79.9343H80.4386V77.9485Z" fill="#BB9DC8"/>
<path d="M80.3956 85.6313H78.6086V87.625H80.3956V85.6313Z" fill="#BB9DC8"/>
<path d="M80.4244 83.064H78.6377V85.0576H80.4244V83.064Z" fill="#BB9DC8"/>
<path d="M80.4244 80.5083H78.6377V82.4939H80.4244V80.5083Z" fill="#BB9DC8"/>
<path d="M75.5494 47.1892H73.7627V49.183H75.5494V47.1892Z" fill="#BB9DC8"/>
<path d="M75.5636 75.3809H73.7769V77.3664H75.5636V75.3809Z" fill="#BB9DC8"/>
<path d="M75.5636 77.9485H73.7769V79.9343H75.5636V77.9485Z" fill="#BB9DC8"/>
<path d="M75.5494 80.5083H73.7627V82.4939H75.5494V80.5083Z" fill="#BB9DC8"/>
<path d="M75.5855 70.2537H73.7915V72.2392H75.5855V70.2537Z" fill="#BB9DC8"/>
<path d="M75.5855 67.698H73.7915V69.6918H75.5855V67.698Z" fill="#BB9DC8"/>
<path d="M75.5855 72.8215H73.7915V74.8071H75.5855V72.8215Z" fill="#BB9DC8"/>
<path d="M75.5855 65.1384H73.7915V67.1321H75.5855V65.1384Z" fill="#BB9DC8"/>
<path d="M75.5201 83.064H73.7334V85.0576H75.5201V83.064Z" fill="#BB9DC8"/>
<path d="M73.4164 101.001H71.6296V102.995H73.4164V101.001Z" fill="#BB9DC8"/>
<path d="M74.5192 95.8818H72.7324V97.8674H74.5192V95.8818Z" fill="#BB9DC8"/>
<path d="M74.0332 98.4414H72.239V100.427H74.0332V98.4414Z" fill="#BB9DC8"/>
<path d="M74.8819 93.3145H73.0952V95.3081H74.8819V93.3145Z" fill="#BB9DC8"/>
<path d="M75.1429 90.7588H73.3562V92.7444H75.1429V90.7588Z" fill="#BB9DC8"/>
<path d="M75.3389 88.1909H73.5449V90.1848H75.3389V88.1909Z" fill="#BB9DC8"/>
<path d="M75.4479 85.6313H73.6611V87.625H75.4479V85.6313Z" fill="#BB9DC8"/>
<path d="M75.4623 39.446H73.6755V41.4316H75.4623V39.446Z" fill="#BB9DC8"/>
<path d="M75.5057 42.0295H73.719V44.0153H75.5057V42.0295Z" fill="#BB9DC8"/>
<path d="M75.4188 36.8462H73.6318V38.8318H75.4188V36.8462Z" fill="#BB9DC8"/>
<path d="M75.5855 62.571H73.7915V64.5647H75.5855V62.571Z" fill="#BB9DC8"/>
<path d="M75.3751 34.2463H73.5884V36.24H75.3751V34.2463Z" fill="#BB9DC8"/>
<path d="M78.0155 77.9485H76.2288V79.9343H78.0155V77.9485Z" fill="#BB9DC8"/>
<path d="M75.5422 44.6094H73.748V46.6032H75.5422V44.6094Z" fill="#BB9DC8"/>
<path d="M75.3173 31.6501H73.5305V33.6359H75.3173V31.6501Z" fill="#BB9DC8"/>
<path d="M75.5855 57.4475H73.7915V59.4413H75.5855V57.4475Z" fill="#BB9DC8"/>
<path d="M75.2082 27.8452H73.4141V28.4264H75.2082V27.8452Z" fill="#BB9DC8"/>
<path d="M75.5636 54.8879H73.7769V56.8816H75.5636V54.8879Z" fill="#BB9DC8"/>
<path d="M75.5855 60.0112H73.7915V61.997H75.5855V60.0112Z" fill="#BB9DC8"/>
<path d="M75.5708 52.3206H73.7769V54.3142H75.5708V52.3206Z" fill="#BB9DC8"/>
<path d="M75.5636 49.7527H73.7769V51.7465H75.5636V49.7527Z" fill="#BB9DC8"/>
<path d="M75.2445 29.0425H73.4578V31.0281H75.2445V29.0425Z" fill="#BB9DC8"/>
<path d="M78.0155 54.8879H76.2288V56.8816H78.0155V54.8879Z" fill="#BB9DC8"/>
<path d="M77.9722 39.4863H76.1853V41.4719H77.9722V39.4863Z" fill="#BB9DC8"/>
<path d="M78.0155 52.3286H76.2288V54.3222H78.0155V52.3286Z" fill="#BB9DC8"/>
<path d="M77.9869 44.6296H76.2V46.6233H77.9869V44.6296Z" fill="#BB9DC8"/>
<path d="M78.0013 47.1973H76.2146V49.1911H78.0013V47.1973Z" fill="#BB9DC8"/>
<path d="M77.9869 42.062H76.2V44.0556H77.9869V42.062Z" fill="#BB9DC8"/>
<path d="M78.0155 60.0112H76.2288V61.997H78.0155V60.0112Z" fill="#BB9DC8"/>
<path d="M78.0155 57.4475H76.2288V59.4413H78.0155V57.4475Z" fill="#BB9DC8"/>
<path d="M78.0155 72.8215H76.2288V74.8071H78.0155V72.8215Z" fill="#BB9DC8"/>
<path d="M78.0155 70.2537H76.2288V72.2392H78.0155V70.2537Z" fill="#BB9DC8"/>
<path d="M78.0155 75.3809H76.2288V77.3664H78.0155V75.3809Z" fill="#BB9DC8"/>
<path d="M78.0155 65.1384H76.2288V67.1321H78.0155V65.1384Z" fill="#BB9DC8"/>
<path d="M78.0155 62.571H76.2288V64.5647H78.0155V62.571Z" fill="#BB9DC8"/>
<path d="M78.0155 67.698H76.2288V69.6918H78.0155V67.698Z" fill="#BB9DC8"/>
<path d="M72.6404 103.569H70.8462V105.554H72.6404V103.569Z" fill="#BB9DC8"/>
<path d="M62.7672 121.502H60.9802V123.496H62.7672V121.502Z" fill="#BB9DC8"/>
<path d="M66.2493 116.375H64.4624V118.36H66.2493V116.375Z" fill="#BB9DC8"/>
<path d="M64.5372 118.934H62.7505V120.92H64.5372V118.934Z" fill="#BB9DC8"/>
<path d="M67.8523 113.811H66.0583V115.805H67.8523V113.811Z" fill="#BB9DC8"/>
<path d="M71.6898 106.124H69.9031V108.118H71.6898V106.124Z" fill="#BB9DC8"/>
<path d="M70.5729 108.692H68.7861V110.677H70.5729V108.692Z" fill="#BB9DC8"/>
<path d="M77.943 36.9106H76.1562V38.8962H77.943V36.9106Z" fill="#BB9DC8"/>
<path d="M69.2816 111.251H67.4949V113.237H69.2816V111.251Z" fill="#BB9DC8"/>
<path d="M59.256 126.621H57.4692V128.607H59.256V126.621Z" fill="#BB9DC8"/>
<path d="M77.9361 34.3308H76.1421V36.3244H77.9361V34.3308Z" fill="#BB9DC8"/>
<path d="M77.8565 29.1633H76.0696V31.1489H77.8565V29.1633Z" fill="#BB9DC8"/>
<path d="M77.8924 31.7471H76.0984V33.7326H77.8924V31.7471Z" fill="#BB9DC8"/>
<path d="M60.9825 124.062H59.1958V126.055H60.9825V124.062Z" fill="#BB9DC8"/>
<path d="M77.827 27.9822H76.0403V28.5633H77.827V27.9822Z" fill="#BB9DC8"/>
<path d="M78.0227 49.7607H76.2288V51.7546H78.0227V49.7607Z" fill="#BB9DC8"/>
<path d="M102.362 39.5186H100.575V41.5043H102.362V39.5186Z" fill="#BB9DC8"/>
<path d="M62.9187 49.4143H61.7927V51.4079H62.9187V49.4143Z" fill="#BB9DC8"/>
<path d="M64.1888 129.185H62.4021V130H64.1888V129.185Z" fill="#BB9DC8"/>
<path d="M69.7313 129.185H67.9443V130H69.7313V129.185Z" fill="#BB9DC8"/>
<path d="M102.362 34.3914H100.575V36.385H102.362V34.3914Z" fill="#BB9DC8"/>
<path d="M102.362 36.9509H100.575V38.9365H102.362V36.9509Z" fill="#BB9DC8"/>
<path d="M102.362 42.0781H100.575V44.0637H102.362V42.0781Z" fill="#BB9DC8"/>
<path d="M80.3661 28.063H78.5793V28.6442H80.3661V28.063Z" fill="#BB9DC8"/>
<path d="M18.6378 129.185H17.512V130H18.6378V129.185Z" fill="#BB9DC8"/>
<path d="M26.9161 129.185H25.1292V130H26.9161V129.185Z" fill="#BB9DC8"/>
<path d="M58.023 129.185H56.2361V130H58.023V129.185Z" fill="#BB9DC8"/>
<path d="M62.6865 46.6934H61.5605V48.687H62.6865V46.6934Z" fill="#BB9DC8"/>
<path d="M35.6575 129.185H33.8635V130H35.6575V129.185Z" fill="#BB9DC8"/>
<path d="M51.2325 129.185H49.4458V130H51.2325V129.185Z" fill="#BB9DC8"/>
<path d="M43.782 129.185H41.988V130H43.782V129.185Z" fill="#BB9DC8"/>
<path d="M102.362 31.8276H100.575V33.8132H102.362V31.8276Z" fill="#BB9DC8"/>
<path d="M97.4864 39.5186H95.6995V41.5043H97.4864V39.5186Z" fill="#BB9DC8"/>
<path d="M97.4864 42.0781H95.6995V44.0637H97.4864V42.0781Z" fill="#BB9DC8"/>
<path d="M99.9242 28.1152H98.1375V28.6964H99.9242V28.1152Z" fill="#BB9DC8"/>
<path d="M97.4864 31.8276H95.6995V33.8132H97.4864V31.8276Z" fill="#BB9DC8"/>
<path d="M97.4864 36.9509H95.6995V38.9365H97.4864V36.9509Z" fill="#BB9DC8"/>
<path d="M99.9242 29.2678H98.1375V31.2617H99.9242V29.2678Z" fill="#BB9DC8"/>
<path d="M97.4864 34.3914H95.6995V36.385H97.4864V34.3914Z" fill="#BB9DC8"/>
<path d="M99.9242 36.9509H98.1375V38.9365H99.9242V36.9509Z" fill="#BB9DC8"/>
<path d="M99.9242 39.5186H98.1375V41.5043H99.9242V39.5186Z" fill="#BB9DC8"/>
<path d="M99.9242 42.0781H98.1375V44.0637H99.9242V42.0781Z" fill="#BB9DC8"/>
<path d="M102.362 28.1152H100.575V28.6964H102.362V28.1152Z" fill="#BB9DC8"/>
<path d="M102.362 29.2678H100.575V31.2617H102.362V29.2678Z" fill="#BB9DC8"/>
<path d="M99.9242 31.8276H98.1375V33.8132H99.9242V31.8276Z" fill="#BB9DC8"/>
<path d="M99.9242 34.3914H98.1375V36.385H99.9242V34.3914Z" fill="#BB9DC8"/>
<path d="M63.3972 70.2537H62.2712V72.2392H63.3972V70.2537Z" fill="#BB9DC8"/>
<path d="M58.3191 101.001H57.1934V102.995H58.3191V101.001Z" fill="#BB9DC8"/>
<path d="M56.6219 103.569H55.4961V105.554H56.6219V103.569Z" fill="#BB9DC8"/>
<path d="M54.5618 106.124H53.4358V108.118H54.5618V106.124Z" fill="#BB9DC8"/>
<path d="M59.6833 98.4414H58.5574V100.427H59.6833V98.4414Z" fill="#BB9DC8"/>
<path d="M61.5982 93.3145H60.4724V95.3081H61.5982V93.3145Z" fill="#BB9DC8"/>
<path d="M22.6277 126.621H21.502V128.607H22.6277V126.621Z" fill="#BB9DC8"/>
<path d="M60.7569 95.8818H59.6311V97.8674H60.7569V95.8818Z" fill="#BB9DC8"/>
<path d="M62.2076 90.7588H61.0818V92.7444H62.2076V90.7588Z" fill="#BB9DC8"/>
<path d="M32.8856 121.502H31.7598V123.496H32.8856V121.502Z" fill="#BB9DC8"/>
<path d="M49.1641 111.251H48.0383V113.237H49.1641V111.251Z" fill="#BB9DC8"/>
<path d="M63.0926 52.103H61.9668V54.0967H63.0926V52.103Z" fill="#BB9DC8"/>
<path d="M27.8365 124.062H26.7107V126.055H27.8365V124.062Z" fill="#BB9DC8"/>
<path d="M45.7837 113.811H44.658V115.805H45.7837V113.811Z" fill="#BB9DC8"/>
<path d="M41.9393 116.375H40.8135V118.36H41.9393V116.375Z" fill="#BB9DC8"/>
<path d="M37.6155 118.934H36.4895V120.92H37.6155V118.934Z" fill="#BB9DC8"/>
<path d="M63.3972 65.1306H62.2712V67.1242H63.3972V65.1306Z" fill="#BB9DC8"/>
<path d="M63.3972 67.698H62.2712V69.6838H63.3972V67.698Z" fill="#BB9DC8"/>
<path d="M63.3831 62.563H62.2571V64.5486H63.3831V62.563Z" fill="#BB9DC8"/>
<path d="M63.296 57.3752H62.1702V59.3608H63.296V57.3752Z" fill="#BB9DC8"/>
<path d="M63.3538 59.9709H62.228V61.9565H63.3538V59.9709Z" fill="#BB9DC8"/>
<path d="M63.2088 54.751H62.083V56.7446H63.2088V54.751Z" fill="#BB9DC8"/>
<path d="M97.4864 29.2678H95.6995V31.2617H97.4864V29.2678Z" fill="#BB9DC8"/>
<path d="M63.2813 80.5083H62.1555V82.4939H63.2813V80.5083Z" fill="#BB9DC8"/>
<path d="M63.3972 72.8215H62.2712V74.8071H63.3972V72.8215Z" fill="#BB9DC8"/>
<path d="M62.9622 85.6313H61.8364V87.625H62.9622V85.6313Z" fill="#BB9DC8"/>
<path d="M62.6575 88.1909H61.5317V90.1848H62.6575V88.1909Z" fill="#BB9DC8"/>
<path d="M63.1653 83.064H62.0393V85.0576H63.1653V83.064Z" fill="#BB9DC8"/>
<path d="M63.3831 75.3809H62.2571V77.3664H63.3831V75.3809Z" fill="#BB9DC8"/>
<path d="M63.3538 77.9485H62.228V79.9343H63.3538V77.9485Z" fill="#BB9DC8"/>
<path d="M52.0806 108.692H50.9548V110.677H52.0806V108.692Z" fill="#BB9DC8"/>
<path d="M82.8619 31.8196H81.075V33.8052H82.8619V31.8196Z" fill="#BB9DC8"/>
<path d="M97.4864 28.1152H95.6995V28.6964H97.4864V28.1152Z" fill="#BB9DC8"/>
<path d="M82.8759 36.9509H81.0891V38.9365H82.8759V36.9509Z" fill="#BB9DC8"/>
<path d="M82.8472 28.0952H81.0603V28.6764H82.8472V28.0952Z" fill="#BB9DC8"/>
<path d="M82.8619 29.252H81.075V31.2377H82.8619V29.252Z" fill="#BB9DC8"/>
<path d="M82.8759 44.6375H81.0891V46.4697H82.8759V44.6375Z" fill="#BB9DC8"/>
<path d="M82.8759 42.0781H81.0891V44.0637H82.8759V42.0781Z" fill="#BB9DC8"/>
<path d="M82.8759 39.5105H81.0891V41.4963H82.8759V39.5105Z" fill="#BB9DC8"/>
<path d="M85.3213 44.6375H83.5273V46.4697H85.3213V44.6375Z" fill="#BB9DC8"/>
<path d="M85.3064 36.9509H83.5125V38.9365H85.3064V36.9509Z" fill="#BB9DC8"/>
<path d="M85.3064 31.8276H83.5125V33.8132H85.3064V31.8276Z" fill="#BB9DC8"/>
<path d="M85.3064 34.3914H83.5125V36.385H85.3064V34.3914Z" fill="#BB9DC8"/>
<path d="M85.3213 42.0781H83.5273V44.0637H85.3213V42.0781Z" fill="#BB9DC8"/>
<path d="M85.3064 29.2678H83.5125V31.2536H85.3064V29.2678Z" fill="#BB9DC8"/>
<path d="M85.3064 28.1152H83.5125V28.6964H85.3064V28.1152Z" fill="#BB9DC8"/>
<path d="M104 39.5186H103.012V41.5043H104V39.5186Z" fill="#BB9DC8"/>
<path d="M87.7511 44.6375H85.9644V46.4697H87.7511V44.6375Z" fill="#BB9DC8"/>
<path d="M104 36.9509H103.012V38.9365H104V36.9509Z" fill="#BB9DC8"/>
<path d="M104 42.0781H103.012V44.0637H104V42.0781Z" fill="#BB9DC8"/>
<path d="M104 34.3914H103.012V36.385H104V34.3914Z" fill="#BB9DC8"/>
<path d="M104 29.2678H103.012V31.2617H104V29.2678Z" fill="#BB9DC8"/>
<path d="M104 31.8276H103.012V33.8132H104V31.8276Z" fill="#BB9DC8"/>
<path d="M104 44.6375H103.012V46.4697H104V44.6375Z" fill="#BB9DC8"/>
<path d="M92.6261 44.6375H90.8394V46.4697H92.6261V44.6375Z" fill="#BB9DC8"/>
<path d="M102.362 44.6375H100.575V46.4697H102.362V44.6375Z" fill="#BB9DC8"/>
<path d="M90.1744 44.6375H88.3877V46.4697H90.1744V44.6375Z" fill="#BB9DC8"/>
<path d="M95.0562 44.6375H93.2622V46.4697H95.0562V44.6375Z" fill="#BB9DC8"/>
<path d="M99.9242 44.6375H98.1375V46.4697H99.9242V44.6375Z" fill="#BB9DC8"/>
<path d="M97.4864 44.6375H95.6995V46.4697H97.4864V44.6375Z" fill="#BB9DC8"/>
<path d="M82.8691 34.3833H81.075V36.3769H82.8691V34.3833Z" fill="#BB9DC8"/>
<path d="M92.6261 36.9509H90.8394V38.9365H92.6261V36.9509Z" fill="#BB9DC8"/>
<path d="M92.6261 42.0781H90.8394V44.0637H92.6261V42.0781Z" fill="#BB9DC8"/>
<path d="M92.6261 39.5186H90.8394V41.5043H92.6261V39.5186Z" fill="#BB9DC8"/>
<path d="M92.6261 31.8276H90.8394V33.8132H92.6261V31.8276Z" fill="#BB9DC8"/>
<path d="M92.6261 29.2678H90.8394V31.2617H92.6261V29.2678Z" fill="#BB9DC8"/>
<path d="M92.6261 34.3914H90.8394V36.385H92.6261V34.3914Z" fill="#BB9DC8"/>
<path d="M95.0562 28.1152H93.2622V28.6964H95.0562V28.1152Z" fill="#BB9DC8"/>
<path d="M95.0562 31.8276H93.2622V33.8132H95.0562V31.8276Z" fill="#BB9DC8"/>
<path d="M95.0562 42.0781H93.2622V44.0637H95.0562V42.0781Z" fill="#BB9DC8"/>
<path d="M95.0562 36.9509H93.2622V38.9365H95.0562V36.9509Z" fill="#BB9DC8"/>
<path d="M95.0562 29.2678H93.2622V31.2617H95.0562V29.2678Z" fill="#BB9DC8"/>
<path d="M95.0562 39.5186H93.2622V41.5043H95.0562V39.5186Z" fill="#BB9DC8"/>
<path d="M92.6261 28.1152H90.8394V28.6964H92.6261V28.1152Z" fill="#BB9DC8"/>
<path d="M95.0562 34.3914H93.2622V36.385H95.0562V34.3914Z" fill="#BB9DC8"/>
<path d="M90.1744 34.3914H88.3877V36.385H90.1744V34.3914Z" fill="#BB9DC8"/>
<path d="M87.7511 36.9509H85.9644V38.9365H87.7511V36.9509Z" fill="#BB9DC8"/>
<path d="M87.7511 34.3914H85.9644V36.385H87.7511V34.3914Z" fill="#BB9DC8"/>
<path d="M87.7511 42.0781H85.9644V44.0637H87.7511V42.0781Z" fill="#BB9DC8"/>
<path d="M87.7583 28.1152H85.9644V28.6964H87.7583V28.1152Z" fill="#BB9DC8"/>
<path d="M87.7511 39.5186H85.9644V41.5043H87.7511V39.5186Z" fill="#BB9DC8"/>
<path d="M87.7511 31.8276H85.9644V33.8132H87.7511V31.8276Z" fill="#BB9DC8"/>
<path d="M87.7511 29.2678H85.9644V31.2617H87.7511V29.2678Z" fill="#BB9DC8"/>
<path d="M90.1744 42.0781H88.3877V44.0637H90.1744V42.0781Z" fill="#BB9DC8"/>
<path d="M90.1744 36.9509H88.3877V38.9365H90.1744V36.9509Z" fill="#BB9DC8"/>
<path d="M85.3213 39.5186H83.5273V41.5043H85.3213V39.5186Z" fill="#BB9DC8"/>
<path d="M90.1744 28.1152H88.3877V28.6964H90.1744V28.1152Z" fill="#BB9DC8"/>
<path d="M90.1744 39.5186H88.3877V41.5043H90.1744V39.5186Z" fill="#BB9DC8"/>
<path d="M90.1744 29.2678H88.3877V31.2617H90.1744V29.2678Z" fill="#BB9DC8"/>
<path d="M90.1744 31.8276H88.3877V33.8132H90.1744V31.8276Z" fill="#BB9DC8"/>
<path d="M36.1507 34.8428H34.3567V36.8284H36.1507V34.8428Z" fill="#BB9DC8"/>
<path d="M62.9701 26.0796H61.1833V26.6608H62.9701V26.0796Z" fill="#BB9DC8"/>
<path d="M65.531 49.5432H63.7371V51.5368H65.531V49.5432Z" fill="#BB9DC8"/>
<path d="M63.6013 30.2434H61.8071V32.229H63.6013V30.2434Z" fill="#BB9DC8"/>
<path d="M63.2387 27.4299H61.4446V29.4155H63.2387V27.4299Z" fill="#BB9DC8"/>
<path d="M60.1119 29.5017H58.325V31.4875H60.1119V29.5017Z" fill="#BB9DC8"/>
<path d="M60.6342 32.4324H58.8474V34.426H60.6342V32.4324Z" fill="#BB9DC8"/>
<path d="M61.1129 35.3467H59.3262V37.3323H61.1129V35.3467Z" fill="#BB9DC8"/>
<path d="M61.9838 41.0784H60.197V43.0639H61.9838V41.0784Z" fill="#BB9DC8"/>
<path d="M65.1682 44.1699H63.3743V46.1638H65.1682V44.1699Z" fill="#BB9DC8"/>
<path d="M63.9785 33.0691H62.1846V35.0629H63.9785V33.0691Z" fill="#BB9DC8"/>
<path d="M64.9214 41.4333H63.1274V43.4189H64.9214V41.4333Z" fill="#BB9DC8"/>
<path d="M65.3641 46.8706H63.5774V48.8644H65.3641V46.8706Z" fill="#BB9DC8"/>
<path d="M64.3197 35.8787H62.533V37.8642H64.3197V35.8787Z" fill="#BB9DC8"/>
<path d="M60.5452 45.7243H61.2134V45.8777H62.3391V43.8921H60.5452V45.7243Z" fill="#BB9DC8"/>
<path d="M61.5773 38.2285H59.7905V40.2143H61.5773V38.2285Z" fill="#BB9DC8"/>
<path d="M54.8451 36.9026H53.0583V38.8882H54.8451V36.9026Z" fill="#BB9DC8"/>
<path d="M55.0773 23.9392H53.2905V24.5204H55.0773V23.9392Z" fill="#BB9DC8"/>
<path d="M55.6141 40.0103H53.8274V41.996H55.6141V40.0103Z" fill="#BB9DC8"/>
<path d="M59.5897 26.5713H57.803V28.5569H59.5897V26.5713Z" fill="#BB9DC8"/>
<path d="M55.5856 25.4587H53.7988V27.4526H55.5856V25.4587Z" fill="#BB9DC8"/>
<path d="M52.1175 27.2971H50.3308V29.2827H52.1175V27.2971Z" fill="#BB9DC8"/>
<path d="M53.0753 30.5337H51.2886V32.5275H53.0753V30.5337Z" fill="#BB9DC8"/>
<path d="M53.9894 33.7383H52.2026V35.7239H53.9894V33.7383Z" fill="#BB9DC8"/>
<path d="M58.3273 37.6482H56.5405V39.6338H58.3273V37.6482Z" fill="#BB9DC8"/>
<path d="M58.8932 40.6069H57.1064V42.6006H58.8932V40.6069Z" fill="#BB9DC8"/>
<path d="M56.2963 28.5264H54.5095V30.5119H56.2963V28.5264Z" fill="#BB9DC8"/>
<path d="M59.2123 25.1526H57.4255V25.7338H59.2123V25.1526Z" fill="#BB9DC8"/>
<path d="M57.007 31.5938H55.2202V33.5874H57.007V31.5938Z" fill="#BB9DC8"/>
<path d="M57.6891 34.6372H55.9023V36.6228H57.6891V34.6372Z" fill="#BB9DC8"/>
<path d="M65.7411 80.5083H63.9543V82.4939H65.7411V80.5083Z" fill="#BB9DC8"/>
<path d="M61.2798 101.001H59.4856V102.995H61.2798V101.001Z" fill="#BB9DC8"/>
<path d="M59.7422 103.569H57.948V105.554H59.7422V103.569Z" fill="#BB9DC8"/>
<path d="M65.6468 52.1917H63.8528V54.1853H65.6468V52.1917Z" fill="#BB9DC8"/>
<path d="M63.4854 95.8818H61.6914V97.8674H63.4854V95.8818Z" fill="#BB9DC8"/>
<path d="M64.2179 93.3145H62.4312V95.3081H64.2179V93.3145Z" fill="#BB9DC8"/>
<path d="M55.6648 108.692H53.8708V110.677H55.6648V108.692Z" fill="#BB9DC8"/>
<path d="M62.5057 98.4414H60.719V100.427H62.5057V98.4414Z" fill="#BB9DC8"/>
<path d="M50.0645 113.811H48.2705V115.805H50.0645V113.811Z" fill="#BB9DC8"/>
<path d="M53.0463 111.251H51.2595V113.237H53.0463V111.251Z" fill="#BB9DC8"/>
<path d="M38.8347 121.502H37.0408V123.496H38.8347V121.502Z" fill="#BB9DC8"/>
<path d="M30.1875 126.621H28.3936V128.607H30.1875V126.621Z" fill="#BB9DC8"/>
<path d="M42.89 118.934H41.1033V120.92H42.89V118.934Z" fill="#BB9DC8"/>
<path d="M64.791 90.7588H62.9971V92.7444H64.791V90.7588Z" fill="#BB9DC8"/>
<path d="M46.655 116.375H44.8608V118.36H46.655V116.375Z" fill="#BB9DC8"/>
<path d="M57.885 106.124H56.0908V108.118H57.885V106.124Z" fill="#BB9DC8"/>
<path d="M65.8355 65.1384H64.0415V67.1321H65.8355V65.1384Z" fill="#BB9DC8"/>
<path d="M65.1827 88.1909H63.3887V90.1848H65.1827V88.1909Z" fill="#BB9DC8"/>
<path d="M65.8282 62.571H64.0415V64.5566H65.8282V62.571Z" fill="#BB9DC8"/>
<path d="M65.7269 54.8076H63.9402V56.8014H65.7269V54.8076Z" fill="#BB9DC8"/>
<path d="M65.8211 59.9951H64.0271V61.9807H65.8211V59.9951Z" fill="#BB9DC8"/>
<path d="M65.8355 70.2537H64.0415V72.2392H65.8355V70.2537Z" fill="#BB9DC8"/>
<path d="M65.7778 57.4155H63.9836V59.4011H65.7778V57.4155Z" fill="#BB9DC8"/>
<path d="M65.8355 67.698H64.0415V69.6918H65.8355V67.698Z" fill="#BB9DC8"/>
<path d="M65.6326 83.064H63.8386V85.0576H65.6326V83.064Z" fill="#BB9DC8"/>
<path d="M51.1602 24.0522H49.3733V26.0378H51.1602V24.0522Z" fill="#BB9DC8"/>
<path d="M65.8282 72.8215H64.0415V74.8071H65.8282V72.8215Z" fill="#BB9DC8"/>
<path d="M65.4587 85.6313H63.6646V87.625H65.4587V85.6313Z" fill="#BB9DC8"/>
<path d="M65.8282 75.3809H64.0415V77.3664H65.8282V75.3809Z" fill="#BB9DC8"/>
<path d="M65.785 77.9485H63.998V79.9343H65.785V77.9485Z" fill="#BB9DC8"/>
<path d="M64.646 38.6721H62.8521V40.6577H64.646V38.6721Z" fill="#BB9DC8"/>
<path d="M21.7652 18.7031H19.9785V20.6968H21.7652V18.7031Z" fill="#BB9DC8"/>
<path d="M17.79 13.3259H16.0032V15.3117H17.79V13.3259Z" fill="#BB9DC8"/>
<path d="M25.4359 23.8748H23.6492V25.8603H25.4359V23.8748Z" fill="#BB9DC8"/>
<path d="M23.7965 26.9905H22.0098V28.9763H23.7965V26.9905Z" fill="#BB9DC8"/>
<path d="M31.733 33.448H29.9463V35.4338H31.733V33.448Z" fill="#BB9DC8"/>
<path d="M13.6259 7.81982H11.8391V9.81345H13.6259V7.81982Z" fill="#BB9DC8"/>
<path d="M10.5863 4.50659H8.79224V5.08776H10.5863V4.50659Z" fill="#BB9DC8"/>
<path d="M21.2793 11.5039H19.4854V13.4977H21.2793V11.5039Z" fill="#BB9DC8"/>
<path d="M27.8665 21.3032H26.0725V23.2969H27.8665V21.3032Z" fill="#BB9DC8"/>
<path d="M30.8985 26.0151H29.1045V28.0007H30.8985V26.0151Z" fill="#BB9DC8"/>
<path d="M24.6309 16.4419H22.8369V18.4275H24.6309V16.4419Z" fill="#BB9DC8"/>
<path d="M27.2643 32.0129H25.4775V33.9987H27.2643V32.0129Z" fill="#BB9DC8"/>
<path d="M18.8418 8.62207H17.0479V9.20324H18.8418V8.62207Z" fill="#BB9DC8"/>
<path d="M28.7875 28.8005H27.0007V30.7861H28.7875V28.8005Z" fill="#BB9DC8"/>
<path d="M30.1658 36.6284H28.3789V38.4607H30.1658V36.6284Z" fill="#BB9DC8"/>
<path d="M45.9224 40.8809H44.1355V42.7131H45.9224V40.8809Z" fill="#BB9DC8"/>
<path d="M49.5355 41.7234H47.7485V43.5556H49.5355V41.7234Z" fill="#BB9DC8"/>
<path d="M42.1429 39.9377H40.3489V41.77H42.1429V39.9377Z" fill="#BB9DC8"/>
<path d="M59.3717 43.5132H57.585V45.3454H59.3717V43.5132Z" fill="#BB9DC8"/>
<path d="M38.24 38.8899H36.446V40.7221H38.24V38.8899Z" fill="#BB9DC8"/>
<path d="M56.2744 43.0374H54.4802V44.8696H56.2744V43.0374Z" fill="#BB9DC8"/>
<path d="M52.9882 42.4409H51.2014V44.2732H52.9882V42.4409Z" fill="#BB9DC8"/>
<path d="M10.6515 10.0005H8.86475V11.9861H10.6515V10.0005Z" fill="#BB9DC8"/>
<path d="M34.2284 37.7729H32.4417V39.6054H34.2284V37.7729Z" fill="#BB9DC8"/>
<path d="M15.454 15.95H13.6672V17.9438H15.454V15.95Z" fill="#BB9DC8"/>
<path d="M5.57341 3.83325H3.78662V5.81903H5.57341V3.83325Z" fill="#BB9DC8"/>
<path d="M19.8356 21.6296H18.0488V23.6152H19.8356V21.6296Z" fill="#BB9DC8"/>
<path d="M34.5331 124.062H32.7463V126.055H34.5331V124.062Z" fill="#BB9DC8"/>
<path d="M1.78678 0H0V0.581165H1.78678V0Z" fill="#BB9DC8"/>
<path d="M49.9996 32.6418H48.2126V34.6274H49.9996V32.6418Z" fill="#BB9DC8"/>
<path d="M48.4325 38.3738H46.6458V40.3594H48.4325V38.3738Z" fill="#BB9DC8"/>
<path d="M47.1266 34.895H45.3398V36.8806H47.1266V34.895Z" fill="#BB9DC8"/>
<path d="M39.6837 18.2156H37.8967V18.7967H39.6837V18.2156Z" fill="#BB9DC8"/>
<path d="M42.5128 23.9312H40.7261V25.9167H42.5128V23.9312Z" fill="#BB9DC8"/>
<path d="M40.859 20.2026H39.0723V22.1882H40.859V20.2026Z" fill="#BB9DC8"/>
<path d="M45.3712 20.5171H43.5845V21.0983H45.3712V20.5171Z" fill="#BB9DC8"/>
<path d="M44.1378 27.6558H42.3511V29.6494H44.1378V27.6558Z" fill="#BB9DC8"/>
<path d="M45.6754 31.3115H43.8887V33.2971H45.6754V31.3115Z" fill="#BB9DC8"/>
<path d="M52.1322 39.2686H50.3455V41.2624H52.1322V39.2686Z" fill="#BB9DC8"/>
<path d="M50.4781 22.4155H48.6914V22.9967H50.4781V22.4155Z" fill="#BB9DC8"/>
<path d="M33.6841 30.5337H31.8901V32.5195H33.6841V30.5337Z" fill="#BB9DC8"/>
<path d="M47.5328 25.7734H45.7461V27.759H47.5328V25.7734Z" fill="#BB9DC8"/>
<path d="M48.7953 29.2278H47.0085V31.2216H48.7953V29.2278Z" fill="#BB9DC8"/>
<path d="M46.2706 22.311H44.4839V24.3047H46.2706V22.311Z" fill="#BB9DC8"/>
<path d="M51.1163 35.9915H49.3296V37.977H51.1163V35.9915Z" fill="#BB9DC8"/>
<path d="M36.1144 27.9822H34.3276V29.9678H36.1144V27.9822Z" fill="#BB9DC8"/>
<path d="M33.6625 23.6731H31.8757V25.6667H33.6625V23.6731Z" fill="#BB9DC8"/>
<path d="M40.4307 36.1528H38.6367V38.1465H40.4307V36.1528Z" fill="#BB9DC8"/>
<path d="M26.4373 12.2861H24.6504V12.8673H26.4373V12.2861Z" fill="#BB9DC8"/>
<path d="M42.8972 33.6094H41.1033V35.595H42.8972V33.6094Z" fill="#BB9DC8"/>
<path d="M38.3996 32.1501H36.6055V34.1359H38.3996V32.1501Z" fill="#BB9DC8"/>
<path d="M28.3741 14.8013H26.5801V16.7868H28.3741V14.8013Z" fill="#BB9DC8"/>
<path d="M31.0435 19.2673H29.2495V21.2531H31.0435V19.2673Z" fill="#BB9DC8"/>
<path d="M41.0621 29.7598H39.2751V31.7455H41.0621V29.7598Z" fill="#BB9DC8"/>
<path d="M44.5296 37.3298H42.7427V39.3154H44.5296V37.3298Z" fill="#BB9DC8"/>
<path d="M39.0889 25.8054H37.302V27.799H39.0889V25.8054Z" fill="#BB9DC8"/>
<path d="M37.0284 21.7705H35.2417V23.7563H37.0284V21.7705Z" fill="#BB9DC8"/>
<path d="M33.394 15.4827H31.5999V16.0638H33.394V15.4827Z" fill="#BB9DC8"/>
<path d="M34.8958 17.7075H33.1089V19.6931H34.8958V17.7075Z" fill="#BB9DC8"/>
</svg>
