<?xml version='1.0' encoding='utf-8'?>
<svg xmlns="http://www.w3.org/2000/svg" version="1.1" width="1720px" height="1229px" viewBox="-320 450 1720 1229"> <g id="layer1"> <g style="fill:rgb(64,190,174); fill-opacity:1.0; stroke-linejoin: miter"> <path d="M-339.56207,436.8453C-339.82022,436.8453,-340.06784,436.94772,-340.2503,437.13025C-340.43283,437.31305,-340.53546,437.56046,-340.53546,437.81854L-340.5343,1694.1871C-340.5343,1694.7249,-340.09857,1695.1604,-339.56107,1695.1604L1419.5645,1695.1611C1419.823,1695.1611,1420.0702,1695.059,1420.2527,1694.8762C1420.4353,1694.694,1420.538,1694.4463,1420.538,1694.1885L1420.5366,437.81955C1420.5366,437.28186,1420.1011,436.8463,1419.5634,436.8463L-339.56207,436.8453 Z"/> </g> <g> <g style="fill:rgb(0,0,0); fill-opacity:1.0; stroke-linejoin: miter"> <path d="M427.03354,1109.2382Q396.23376,1109.2383,369.20514,1117.4092Q342.177,1124.9523,321.43417,1140.0374Q301.32013,1155.1235,289.37738,1177.7515Q278.0631,1200.3806,278.06323,1230.551L376.11957,1254.4365Q376.11957,1238.0945,388.69086,1226.1514Q401.2622,1214.2094,420.11945,1214.2092Q436.46188,1214.2091,449.0332,1224.266Q460.97592,1233.695,460.97604,1250.0377Q460.97604,1261.3514,451.54742,1272.6661Q442.7474,1283.981,416.97632,1300.323Q404.4051,1307.8655,393.71902,1317.9229Q383.66208,1327.3503,375.49084,1341.1792Q367.94785,1354.379,363.54825,1371.9791Q359.14798,1389.5792,359.14804,1412.8363L359.14792,1431.6935L445.89,1431.6937Q445.8902,1424.7797,446.5188,1418.4938Q447.77606,1406.5508,451.54742,1399.6365Q462.23322,1382.6655,474.80438,1371.3513Q487.37537,1360.037,499.94678,1350.608Q512.5184,1341.8081,524.461,1333.0083Q536.40393,1324.837,545.83215,1312.8944Q554.6321,1300.952,560.2891,1283.981Q565.9462,1267.6375,565.9461,1241.8663Q565.946,1211.6952,555.2608,1187.1805Q545.2038,1163.2958,526.3469,1145.6957Q508.11847,1128.7241,482.9757,1118.667Q457.83347,1109.2389,427.66196,1109.2386 Z M359.7767,1489.5221L359.77673,1576.2646L445.89014,1576.2646L445.8902,1489.5223 Z"/> </g> </g> <g style="fill:rgb(0,0,0); fill-opacity:1.0; stroke-linejoin: miter"> <path d="M611.0966,1501.8632Q607.0549,1510.1151,605.1058,1521.3192Q602.76807,1535.3481,604.1127,1541.6061Q604.49255,1543.2848,605.4375,1544.5638Q605.70386,1545.1981,609.05676,1547.6315Q609.7971,1548.4066,610.02466,1549.3322Q610.31616,1550.4467,610.2721,1552.2032Q609.448,1562.0438,609.7529,1563.224Q609.9829,1566.3407,611.5874,1568.6534Q614.90125,1573.7472,628.5106,1576.3082Q653.9532,1581.052,657.941,1566.8357Q659.3931,1561.9043,657.66095,1555.0603Q656.258,1548.926,650.081,1534.9083L647.9686,1508.5876L611.1978,1501.8815"/> </g> <g style="fill:rgb(0,0,0); fill-opacity:1.0; stroke-linejoin: miter"> <path d="M733.9774,1461.1855L700.6179,1500.3851Q707.5591,1510.9093,708.71326,1520.586Q709.3429,1524.9745,709.313,1531.3612Q709.3812,1534.1996,708.6959,1550.1442L708.64136,1554.8119Q708.7018,1558.9572,709.2837,1561.2379Q709.9861,1564.088,711.4492,1565.3837Q712.25244,1566.3578,716.8606,1568.2235Q722.9764,1570.454,737.0337,1559.4546Q748.993,1549.6863,749.94403,1541.4924Q750.4743,1538.4443,749.99567,1534.2318Q750.1962,1534.1884,747.34595,1519.3032L746.3307,1512.7671Q745.225,1504.6875,745.44275,1501.3071Q745.58887,1499.2634,746.1808,1498.8425Q746.2649,1498.3379,749.3501,1498.5269Q749.88354,1498.4487,750.40027,1498.1389Q751.6057,1497.4946,752.6124,1494.7357Q755.0908,1486.974,753.6293,1478.3253Q751.8683,1466.1265,734.0145,1461.196"/> </g> <g style="fill:rgb(255,184,147); fill-opacity:1.0; stroke-linejoin: miter"> <path d="M466.32266,1039.7595L433.49527,1039.7866L434.00833,1108.58Q423.80087,1121.1957,424.01077,1131.4901Q424.2814,1137.8212,429.54623,1143.0497Q435.87094,1149.1426,443.85477,1151.2019Q452.31644,1153.2024,457.2825,1148.0085Q459.95255,1145.3356,462.20908,1140.754Q463.17044,1138.8097,464.10184,1136.413Q464.94418,1134.316,466.75833,1128.6752Q467.21207,1127.4674,467.33743,1127.5536Q467.5469,1127.5807,467.60306,1128.3859Q467.86044,1135.295,468.46933,1137.9943Q469.25162,1141.7277,470.60965,1144.1437Q473.79538,1149.5809,476.49255,1144.1141Q478.60773,1139.2269,478.90643,1132.1708Q479.0927,1125.5531,477.3244,1121.1608Q474.72495,1113.5775,461.1987,1105.5526Q461.26016,1091.9015,462.09036,1084.4608Q462.16507,1081.7452,465.62668,1063.1333Q466.14633,1059.813,466.3721,1056.845Q466.9069,1050.4319,466.32278,1039.7666"/> </g> <g style="fill:rgb(0,0,0); fill-opacity:1.0; stroke-linejoin: miter"> <path d="M635.6279,726.18414Q623.41705,725.2499,611.77924,731.0884Q599.46545,737.32166,592.98285,747.45197Q581.98737,764.62885,589.0546,801.10895L664.9542,802.51605Q670.78,796.16425,673.3727,791.9965Q676.6173,786.96405,676.4509,782.0956L675.59106,770.8135Q676.3683,756.80426,675.9292,755.4433Q675.4674,750.35046,673.22266,746.55347Q668.7822,738.9735,657.9824,733.0759Q646.6001,727.01086,635.724,726.1911"/> </g> <g style="fill:rgb(255,255,255); fill-opacity:1.0; stroke-linejoin: miter"> <path d="M653.59375,836.4765L592.4969,838.83435L583.27563,849.54663C550.1775,861.60126,526.3369,875.02277,511.4361,889.4856C487.21152,912.99915,464.0466,943.1265,442.37546,980.2645C430.27652,1000.999,425.7903,1021.2373,428.79892,1040.9116L471.1003,1044.8318C468.8439,1023.1421,470.22464,1010.459,474.86874,1006.3469C476.07266,1005.2805,477.15463,1003.8967,478.7867,1003.0696C487.33173,998.73987,491.8681,996.3063,492.1574,995.2882C493.00958,995.31433,494.74982,990.6952,498.25055,981.7562C499.0202,979.7906,500.49908,978.63434,501.76788,977.7674C503.0498,976.89154,504.8783,975.79364,507.4906,975.1235C520.5835,971.7636,527.8145,969.4244,529.6297,968.4661C534.12726,966.0926,540.61633,962.08307,548.6318,955.47626C566.11676,980.7458,576.9022,1002.7572,581.75854,1021.3158C586.36554,1038.921,588.0922,1064.9777,586.17084,1099.6935L656.66504,1106.9019L733.5928,1091.4883C724.1467,1048.8397,719.0585,1019.1942,717.5774,1002.61285C715.923,984.09406,716.21216,960.9341,719.195,933.05963L780.3831,976.18274L785.38434,996.62665C795.8131,1007.52313,807.2427,1007.6683,807.2427,1007.6683C820.7023,1007.8403,835.4961,997.2658,835.4961,997.2658C837.13763,983.9713,836.5292,973.00476,833.79785,964.32654C831.3815,956.65045,827.1924,949.341,821.10284,942.4369C819.95386,939.96,805.30804,926.16406,777.1468,901.0699C773.7137,898.01044,768.7369,890.2236,761.2347,878.2978C759.2768,875.18567,756.1447,872.77527,752.74225,870.4701C730.08405,855.1201,699.8531,847.219,662.10345,846.6872L653.8779,836.8173 Z"/> </g> <g style="fill:rgb(0,0,0); fill-opacity:1.0; stroke-linejoin: miter"> <path d="M653.715,1240.95L648.5116,1297.4446L644.77985,1285.2748L653.5289,1241.873 M732.8894,1087.2432Q676.92847,1112.4838,586.2271,1097.0897Q565.6256,1324.5795,624.9822,1390.8502L607.0986,1504.7745L650.52155,1513.342L667.7627,1460.14L702.7892,1506.2267L737.3927,1462.2759L693.99664,1378.7577Q694.9129,1359.9396,740.2676,1155.1442Q745.4308,1116.9126,733.0322,1087.6433 Z"/> </g> <g style="fill:rgb(255,184,147); fill-opacity:1.0; stroke-linejoin: miter"> <path d="M619.03796,759.81165Q607.38007,759.17017,601.21436,767.431Q596.1218,773.4386,593.6085,793.9896L590.076,792.1202Q589.3803,769.24915,586.0855,771.03406Q584.4462,772.45874,582.5529,780.0022Q581.02985,786.6052,581.358,791.0557Q581.6713,797.44904,588.69794,801.48004Q587.6965,817.25446,593.13727,832.38293L590.7685,840.0502Q598.06,852.58484,605.08673,860.2018Q612.6381,868.62366,628.7485,882.2798L645.23785,858.58356Q650.1552,845.5772,653.0753,835.54846Q658.2605,826.19055,660.5979,819.9933Q668.24414,799.3632,667.1344,783.5355Q665.78625,768.9678,658.0204,765.1141Q655.3994,763.81635,651.60205,763.3201L637.5579,762.28467Q619.90234,759.55286,619.0471,759.81213"/> </g> <g style="fill:rgb(0,0,0); fill-opacity:0.09411765; stroke-linejoin: miter"> <path d="M647.7078,860.42004L638.7608,878.5442L665.9178,880.4055L647.7244,860.43884L647.7078,860.42004L647.7076,860.4215 Z M604.01324,863.04944L591.7184,882.9305L620.3139,877.9492L604.04,863.07434L604.01324,863.04944L604.01324,863.0504 Z M739.37823,910.85754Q732.5103,915.81335,729.3183,919.82794Q727.84357,921.67194,726.5463,923.9334Q725.35345,925.98517,723.64545,929.69147L739.38104,910.8605L739.38324,910.85754L739.378,910.859 Z M773.56757,904.8196Q770.43085,916.6802,769.0218,925.1116Q767.95465,931.2757,766.62994,942.6434L773.5727,904.8196L773.56757,904.8208 Z M535.40027,931.6085L549.6299,952.83746Q549.66907,947.98175,546.91315,944.04877Q544.0114,939.7214,535.4198,931.62634L535.40027,931.6085L535.40027,931.61 Z M825.94763,956.9996Q807.879,962.9138,800.5527,966.8804Q794.3423,970.1041,788.8497,975.8202L825.9391,957.0079L825.95337,957.00006L825.94763,957.0008 Z M497.1189,921.36346L509.99286,949.00836Q512.57056,966.24677,513.9413,967.2387Q514.1515,967.4709,514.35486,967.48065Q514.93115,967.50726,515.4529,965.74066Q516.1244,963.2126,516.093,959.5407Q516.0009,952.8582,513.7236,946.5638Q509.77045,935.8238,497.14,921.3869L497.1189,921.36346L497.1189,921.3649 Z M474.18307,955.48895L491.66547,983.11145Q489.40265,973.6307,486.0768,968.5855Q482.5828,963.0423,474.20248,955.5063L474.18307,955.48895L474.18307,955.4899 Z M451.6404,992.76575Q461.42032,999.31104,466.33963,1001.5874Q470.89676,1003.7849,476.29294,1004.2864L451.65457,992.77136L451.6428,992.76575L451.6404,992.7667 Z M626.30927,889.4017Q624.11334,932.056,631.8484,980.57697Q636.04504,1006.62634,644.3514,1042.095Q649.0408,1062.0945,654.26184,1081.7781Q657.1208,1092.5073,658.9727,1098.7668Q660.2963,1103.2456,660.4913,1103.2549Q660.5549,1103.2583,660.49884,1102.7886Q660.31354,1101.2344,658.5894,1093.3972L647.3037,1042.7021Q644.7078,1030.7087,642.2702,1018.479Q636.8717,991.6993,629.8431,948.8439L626.3172,889.47125L626.3129,889.4017L626.30927,889.4024 Z"/> </g> <g style="fill:rgb(0,0,0); fill-opacity:0.15686275; stroke-linejoin: miter"> <path d="M653.3517,832.9159Q642.3532,845.29596,636.3028,849.55225Q628.9444,854.86865,622.82477,854.4956Q610.80194,853.9335,593.6179,830.1525L622.91595,871.91626L653.281,833.00745"/> </g> <g style="fill:rgb(0,0,0); fill-opacity:0.6509804; stroke-linejoin: miter"> <path d="M865.4676,1574.7917L862.41254,1575.6235Q840.69165,1578.1349,735.30286,1579.642Q629.1848,1581.1464,485.38074,1580.8618Q348.13852,1580.4633,265.8545,1578.5344Q183.63675,1576.5913,199.17638,1573.959Q220.89677,1571.4467,326.28516,1569.9403Q432.40286,1568.4352,576.2071,1568.7207Q713.4492,1569.1185,795.73413,1571.0472Q822.0989,1571.6718,839.1671,1572.4069L853.51294,1573.1631Q865.3344,1573.9438,865.4676,1574.7917"/> </g> <g style="fill:rgb(255,184,147); fill-opacity:1.0; stroke-linejoin: miter"> <path d="M789.56976,996.48505C798.5278,1004.3868,809.6832,1004.09503,809.6832,1004.09503C820.83765,1003.80365,833.72437,996.9577,833.72437,996.9577C836.09045,987.2865,851.5521,950.0057,870.4196,903.6116C878.747,904.8408,884.9973,904.6658,889.17004,903.0858L928.49603,888.9416C933.8655,886.73016,937.32117,884.6424,937.9889,882.3582C938.88135,879.3042,935.7716,878.38086,929.5535,879.7651C925.2797,880.717,916.3704,884.59955,902.83496,891.4542C924.2994,877.5832,935.32825,868.3059,935.6188,863.59863C935.73535,861.705,932.84216,862.07776,927.2858,864.8163C921.2187,867.80676,912.36115,873.19885,900.6697,880.9039C916.60223,869.6493,926.0715,860.8297,929.07697,854.4456C929.17194,853.19196,927.6934,853.293,924.6409,854.7493L897.6847,870.2195C893.46375,872.4305,891.03955,873.2071,890.26013,872.814C889.40955,872.38434,889.83997,870.75055,891.6741,867.63257L904.7457,848.2653C905.9768,846.0258,906.05505,844.5671,904.8655,844.3669C903.525,844.1413,901.4414,845.47675,898.66724,847.8852C898.65344,847.4953,895.32385,851.5227,888.3821,859.7191C886.7881,861.6012,884.85913,863.12537,882.86707,864.5251C881.31616,865.61444,879.72845,866.5839,878.05316,867.30804C869.65094,870.9411,864.8548,873.106,863.6276,873.78107C860.77435,875.34894,858.16974,876.9766,855.77826,878.66144C848.2362,883.9757,840.4723,893.6963,832.5387,907.9637C829.2173,913.9371,825.6283,920.87756,821.8465,928.8263 Z"/> </g> </g> </svg>