<?xml version='1.0' encoding='utf-8'?>
<svg xmlns="http://www.w3.org/2000/svg" version="1.1" id="Layer_1" x="0px" y="0px" viewBox="0 0 74 74" style="enable-background:new 0 0 74 74;"> <path d="M65.67,43.97c-1.17-1.51-3.35-1.8-4.88-0.66l-0.3,0.23c0-0.18,0.01-0.35,0-0.54c-0.33-9.2-4.71-19.69-10.56-24.41 c0.39-0.52,0.62-1.24,0.62-2.04c0-1.59-0.92-2.83-2.11-2.87c2.14-2.83,2.58-6.01,2.58-6.01s-2.59,0.32-5.24,1.76 c-0.84-2.41-2.17-4.05-2.17-4.05s-1.33,1.64-2.17,4.05c-2.66-1.44-5.24-1.76-5.24-1.76s0.45,3.18,2.58,6.01 c-1.19,0.04-2.11,1.28-2.11,2.87c0,0.8,0.24,1.52,0.62,2.04C31.44,23.31,27.08,33.8,26.74,43c-0.04,1.14,0.15,2.15,0.51,3.05 c-1.58-0.95-3.42-1.51-5.14-1.51h-3.48c-0.27-1.18-1.32-2.06-2.58-2.06H8.31c-0.39,0-0.71,0.32-0.71,0.71v21.75 c0,0.39,0.32,0.71,0.71,0.71h7.74c1.22,0,2.24-0.84,2.54-1.96h5.17c1.79,0,3.48,0.56,4.89,1.62c2.23,1.66,5.85,3.31,8.19,3.31 c0.07,0,0.14,0,0.21,0c9.62-0.44,28.19-19.92,28.38-20.11c0.62-0.64,0.96-1.5,0.96-2.4C66.4,45.34,66.15,44.6,65.67,43.97z M12.78,62.66c-0.92,0-1.66-0.75-1.66-1.67c0-0.91,0.74-1.66,1.66-1.66s1.66,0.75,1.66,1.66C14.43,61.91,13.7,62.66,12.78,62.66z M42.87,28.5v0.45c-0.62-0.56-2.02-2.04-2.02-3.85c0-2.27,2.21-4.02,2.31-4.1c0.27-0.21,0.65-0.21,0.92,0 c0.09,0.08,2.31,1.83,2.31,4.1c0,1.81-1.41,3.29-2.02,3.85V28.5C44.37,27.18,42.87,27.18,42.87,28.5z M42.87,30.41v5.39 c-0.97-0.01-2.62-0.21-3.72-1.31c-1.13-1.13-1.3-2.85-1.3-3.81c0-0.41,0.03-0.68,0.03-0.72c0.05-0.34,0.31-0.61,0.66-0.65 C38.66,29.3,41.25,28.99,42.87,30.41z M46.13,43c-0.66,0.18-1.28,0.22-1.76,0.23v-5.4c1.63-1.4,4.21-1.1,4.33-1.09 c0.34,0.04,0.61,0.31,0.65,0.65c0.02,0.12,0.35,2.92-1.26,4.53C47.53,42.49,46.81,42.81,46.13,43z M48.09,34.49 c-0.56,0.56-1.28,0.89-1.96,1.08c-0.66,0.17-1.28,0.22-1.76,0.23v-5.4c1.63-1.4,4.21-1.1,4.33-1.09c0.34,0.04,0.61,0.31,0.65,0.65 C49.37,30.08,49.7,32.88,48.09,34.49z M37.88,37.39c0.05-0.34,0.31-0.61,0.66-0.65c0.12-0.01,2.71-0.32,4.33,1.1v5.39 c-0.97-0.01-2.62-0.21-3.72-1.31c-1.13-1.13-1.3-2.85-1.3-3.81C37.85,37.7,37.88,37.43,37.88,37.39z M38.84,15.17h9.55 c0.26,0,0.67,0.55,0.67,1.38s-0.4,1.38-0.67,1.38h-9.55c-0.26,0-0.66-0.55-0.66-1.38S38.58,15.17,38.84,15.17z M64.36,47.48 C59.28,52.83,44.48,66.78,37,67.12c-1.77,0.08-5.14-1.3-7.44-3.01c-1.67-1.26-3.67-1.92-5.79-1.92H18.7V46.04h3.41 c1.8,0,3.77,0.71,5.28,1.91c0.06,0.06,0.13,0.11,0.2,0.15c1.67,1.21,3.76,1.9,5.76,1.9H43.6c1.56,0,2.83,1.27,2.83,2.85 c0,0.65-0.22,1.26-0.62,1.77c0,0.01-0.01,0.01-0.01,0.02c-0.03,0.03-0.07,0.06-0.09,0.1c-0.53,0.6-1.29,0.94-2.1,0.94H32.11 c-0.41,0-0.75,0.34-0.75,0.75s0.34,0.75,0.75,0.75H43.6c1.27,0,2.44-0.55,3.26-1.5L61.7,44.51c0.87-0.65,2.12-0.48,2.78,0.37 c0.27,0.36,0.42,0.78,0.42,1.23C64.9,46.63,64.71,47.11,64.36,47.48z"/> </svg>